<?xml version="1.0" encoding="UTF-8"?>
<svg id="exportSvg" xmlns="http://www.w3.org/2000/svg" xmlns:xlink="http://www.w3.org/1999/xlink" version="1.1" viewBox="0 0 677 588">
  <!-- Generator: Adobe Illustrator 29.3.1, SVG Export Plug-In . SVG Version: 2.1.0 Build 151)  -->
  <defs>
    <style>
      .st0, .st1, .st2, .st3, .st4, .st5, .st6, .st7, .st8, .st9, .st10 {
        fill: none;
      }

      .st1 {
        stroke: #e7e7e7;
      }

      .st11 {
        fill: #747474;
      }

      .st11, .st12, .st13, .st14, .st15 {
        font-family: ArialMT, Arial;
      }

      .st11, .st12, .st13, .st14, .st15, .st16, .st17 {
        isolation: isolate;
      }

      .st11, .st15 {
        font-size: 12px;
      }

      .st2, .st7 {
        stroke: #004c8f;
      }

      .st2, .st10 {
        stroke-dasharray: 2 2;
      }

      .st12 {
        font-size: 14px;
      }

      .st12, .st14 {
        fill: #181818;
      }

      .st13 {
        fill: #888;
        font-size: 11px;
      }

      .st3 {
        stroke: #dee79a;
      }

      .st3, .st4, .st5, .st9 {
        stroke-width: 2px;
      }

      .st3, .st5, .st7, .st9 {
        stroke-linecap: round;
        stroke-linejoin: round;
      }

      .st4, .st6, .st8 {
        stroke: #181818;
      }

      .st5, .st10 {
        stroke: #c4c4c4;
      }

      .st6 {
        stroke-miterlimit: 8;
        stroke-width: 2px;
      }

      .st14 {
        font-size: 16px;
      }

      .st7 {
        stroke-width: 4px;
      }

      .st18 {
        fill: #fff;
      }

      .st15 {
        fill: #a2a2a2;
      }

      .st8 {
        stroke-linecap: square;
      }

      .st16 {
        font-family: Arial-BoldMT, Arial;
        font-size: 22px;
        font-weight: 700;
      }

      .st9 {
        stroke: #009076;
      }

      .st17 {
        fill: #404040;
        font-family: Arial-ItalicMT, Arial;
        font-size: 16px;
        font-style: italic;
      }
    </style>
  </defs>
  <rect class="st18" x="-18.9" width="751.1" height="588"/>
  <rect class="st0" x="35" width="677" height="588"/>
  <text class="st16" transform="translate(0 22)"><tspan x="0" y="0">U.S. Pork Lean cut Exports to China Plummet as Competitors</tspan></text>
  <text class="st16" transform="translate(0 47)"><tspan x="0" y="0">Expand Market Share</tspan></text>
  <text class="st12" transform="translate(0 74)"><tspan x="0" y="0">Share of China’s pork lean cut imports in percentage by top suppliers (2016–2024)</tspan></text>
  <line class="st1" y1="116.4" x2="629" y2="116.4"/>
  <line class="st1" y1="144.3" x2="629" y2="144.3"/>
  <line class="st1" y1="172.2" x2="629" y2="172.2"/>
  <line class="st1" y1="200.2" x2="629" y2="200.2"/>
  <line class="st1" y1="228.1" x2="629" y2="228.1"/>
  <line class="st1" y1="256" x2="629" y2="256"/>
  <line class="st1" y1="283.9" x2="629" y2="283.9"/>
  <line class="st1" y1="311.8" x2="629" y2="311.8"/>
  <line class="st1" y1="339.7" x2="629" y2="339.7"/>
  <line class="st1" y1="367.6" x2="629" y2="367.6"/>
  <line class="st1" y1="395.5" x2="629" y2="395.5"/>
  <line class="st1" y1="423.4" x2="629" y2="423.4"/>
  <line class="st1" y1="451.3" x2="629" y2="451.3"/>
  <line class="st1" y1="479.2" x2="629" y2="479.2"/>
  <line class="st1" y1="507.1" x2="629" y2="507.1"/>
  <path id="Spain" class="st3" d="M28.7,307.6l73.9-49,73.7,17.4,73.7-22,73.7-33.1,73.9-127.9,73.7,53.4,73.7,42,73.7-57.1"/>
  <path id="Canada" class="st5" d="M28.7,394.9l73.9-31.8,73.7,4.2,73.7,69.3,73.7-15.8,73.9,28.2,73.7.8,73.7-23.4,73.7,26.1"/>
  <path id="Denmark" class="st5" d="M28.7,388.9l73.9,31.8,73.7,19.8,73.7-37.1,73.7,4.5,73.9-8.4,73.7-26.1,73.7,45.9,73.7,33.3"/>
  <path id="Brazil" class="st9" d="M28.7,450.6l73.9,13.7,73.7-142.7,73.7,25.8,73.7,3.9,73.9-49.9,73.7-128.1,73.7-38.2,73.7,44.9"/>
  <path id="United_States" class="st7" d="M28.7,356l73.9-.4,73.7,92.4,73.7-69.6,73.7-35.6,73.9,62.2,73.7,52.7,73.7-9.9,73.7,7.5"/>
  <path id="Canada1" data-name="Canada" class="st10" d="M619,452.5l7-20.2"/>
  <path id="Denmark1" data-name="Denmark" class="st10" d="M619,452.7l7-1.5"/>
  <path id="United_States1" data-name="United_States" class="st2" d="M619,455.3l7,21.7"/>
  <text class="st11" transform="translate(15.4 552)"><tspan x="0" y="0">2016</tspan></text>
  <text class="st11" transform="translate(89.3 552)"><tspan x="0" y="0">2017</tspan></text>
  <text class="st11" transform="translate(163.1 552)"><tspan x="0" y="0">2018</tspan></text>
  <text class="st11" transform="translate(236.8 552)"><tspan x="0" y="0">2019</tspan></text>
  <text class="st11" transform="translate(310.5 552)"><tspan x="0" y="0">2020</tspan></text>
  <text class="st11" transform="translate(384.5 552)"><tspan x="0" y="0">2021</tspan></text>
  <text class="st11" transform="translate(458.2 552)"><tspan x="0" y="0">2022</tspan></text>
  <text class="st11" transform="translate(531.9 552)"><tspan x="0" y="0">2023</tspan></text>
  <text class="st11" transform="translate(605.7 552)"><tspan x="0" y="0">2024</tspan></text>
  <text class="st15" transform="translate(0 530)"><tspan x="0" y="0">0</tspan></text>
  <text class="st15" transform="translate(0 502.1)"><tspan x="0" y="0">2</tspan></text>
  <text class="st15" transform="translate(0 474.2)"><tspan x="0" y="0">4</tspan></text>
  <text class="st15" transform="translate(0 446.3)"><tspan x="0" y="0">6</tspan></text>
  <text class="st15" transform="translate(0 418.4)"><tspan x="0" y="0">8</tspan></text>
  <text class="st15" transform="translate(0 390.5)"><tspan x="0" y="0">10</tspan></text>
  <text class="st15" transform="translate(0 362.6)"><tspan x="0" y="0">12</tspan></text>
  <text class="st15" transform="translate(0 334.7)"><tspan x="0" y="0">14</tspan></text>
  <text class="st15" transform="translate(0 306.8)"><tspan x="0" y="0">16</tspan></text>
  <text class="st15" transform="translate(0 278.9)"><tspan x="0" y="0">18</tspan></text>
  <text class="st15" transform="translate(0 251)"><tspan x="0" y="0">20</tspan></text>
  <text class="st15" transform="translate(0 223.1)"><tspan x="0" y="0">22</tspan></text>
  <text class="st15" transform="translate(0 195.2)"><tspan x="0" y="0">24</tspan></text>
  <text class="st15" transform="translate(0 167.2)"><tspan x="0" y="0">26</tspan></text>
  <text class="st15" transform="translate(0 139.3)"><tspan x="0" y="0">28</tspan></text>
  <text class="st15" transform="translate(0 111.4)"><tspan x="0" y="0">30</tspan></text>
  <line class="st8" x1="629" y1="535" y2="535"/>
  <text class="st14" transform="translate(629 136.4)"><tspan x="0" y="0">Spain</tspan></text>
  <text class="st14" transform="translate(629 437.3)"><tspan x="0" y="0">Canada</tspan></text>
  <text class="st14" transform="translate(629 456.2)"><tspan x="0" y="0">Denmark</tspan></text>
  <text class="st14" transform="translate(629 184.9)"><tspan x="0" y="0">Brazil</tspan></text>
  <text class="st14" transform="translate(629 482.1)"><tspan x="0" y="0">United</tspan></text>
  <text class="st14" transform="translate(679 482.1)"><tspan x="0" y="0">States</tspan></text>
  <path class="st4" d="M437.5,295.6c-38.5,1.9-75.1,16.5-109.8,43.6"/>
  <path class="st6" d="M339.8,339.6l-12.1-.3,3.1-11.7"/>
  <text class="st17" transform="translate(464.9 262)"><tspan x="0" y="0">The U.S. supplied</tspan></text>
  <text class="st17" transform="translate(474.8 281.2)"><tspan x="0" y="0">14% of China’s</tspan></text>
  <text class="st17" transform="translate(473.8 300.4)"><tspan x="0" y="0">pork imports as</tspan></text>
  <text class="st17" transform="translate(455.1 319.6)"><tspan x="0" y="0">China experienced a</tspan></text>
  <text class="st17" transform="translate(456.4 338.8)"><tspan x="0" y="0">supply shortage due</tspan></text>
  <text class="st17" transform="translate(470.9 357.9)"><tspan x="0" y="0">to African Swine</tspan></text>
  <text class="st17" transform="translate(506.1 377.1)"><tspan x="0" y="0">Fever.</tspan></text>
  <text class="st13" transform="translate(0 586)"><tspan x="0" y="0">Chart:</tspan></text>
  <text class="st13" transform="translate(32.7 586)"><tspan x="0" y="0">Yating Wang</tspan></text>
  <text class="st13" transform="translate(99.9 586)"><tspan x="0" y="0">•</tspan></text>
  <text class="st13" transform="translate(106.5 586)"><tspan x="0" y="0">Source:</tspan></text>
  <text class="st13" transform="translate(147.2 586)"><tspan x="0" y="0">Chinese Customs</tspan></text>
  <text class="st13" transform="translate(236.7 586)"><tspan x="0" y="0">•</tspan></text>
  <text class="st13" transform="translate(243.3 586)"><tspan x="0" y="0">Created with</tspan></text>
  <text class="st13" transform="translate(307.8 586)"><tspan x="0" y="0">Datawrapper</tspan></text>
</svg>